<svg xmlns="http://www.w3.org/2000/svg" viewBox="0 0 820 610" role="img" aria-label="CO2 Lewis connectivity"><title>CO2 Lewis connectivity</title><desc>Authored support for the supplied situation. No final classification or computed answer is shown.</desc><style>text{font-family:Arial,sans-serif;fill:#0f172a;stroke:none}</style><g data-g9-stage-id="REP-ACADEMIC-ISS33-Q4-GIVENS"><text x="35" y="45" font-size="22">CO2 Lewis connectivity</text><text x="210" y="180" font-size="24">O</text><line x1="233" y1="173" x2="323" y2="173" stroke="#334155" stroke-width="3"/><line x1="233.0" y1="179.0" x2="323.0" y2="179.0" stroke="#334155" stroke-width="3"/><text x="335" y="180" font-size="24">C</text><line x1="358" y1="173" x2="448" y2="173" stroke="#334155" stroke-width="3"/><line x1="358.0" y1="179.0" x2="448.0" y2="179.0" stroke="#334155" stroke-width="3"/><text x="460" y="180" font-size="24">O</text><text x="210" y="245" font-size="20">CO2 connectivity</text><text x="35" y="385" font-size="18">Connectivity layout only; page angles are not measured geometry.</text></g><g data-g9-stage-id="REP-ACADEMIC-ISS33-Q4-BRIDGE"><text x="35" y="45" font-size="22">CO2 Lewis connectivity</text><rect x="40.0" y="90" width="246.66666666666666" height="70" fill="#dbeafe" stroke="#64748b"/><text x="50.0" y="130" font-size="18">Job</text><rect x="286.66666666666663" y="90" width="246.66666666666666" height="70" fill="#dbeafe" stroke="#64748b"/><text x="296.66666666666663" y="130" font-size="18">Carbon function</text><rect x="533.3333333333333" y="90" width="246.66666666666666" height="70" fill="#dbeafe" stroke="#64748b"/><text x="543.3333333333333" y="130" font-size="18">Orientation</text><rect x="40.0" y="160" width="246.66666666666666" height="70" fill="#fff" stroke="#64748b"/><text x="50.0" y="200" font-size="18">Sigma job 1</text><rect x="286.66666666666663" y="160" width="246.66666666666666" height="70" fill="#fff" stroke="#64748b"/><text x="296.66666666666663" y="200" font-size="18">[          ]</text><rect x="533.3333333333333" y="160" width="246.66666666666666" height="70" fill="#fff" stroke="#64748b"/><text x="543.3333333333333" y="200" font-size="18">[          ]</text><rect x="40.0" y="230" width="246.66666666666666" height="70" fill="#fff" stroke="#64748b"/><text x="50.0" y="270" font-size="18">Sigma job 2</text><rect x="286.66666666666663" y="230" width="246.66666666666666" height="70" fill="#fff" stroke="#64748b"/><text x="296.66666666666663" y="270" font-size="18">[          ]</text><rect x="533.3333333333333" y="230" width="246.66666666666666" height="70" fill="#fff" stroke="#64748b"/><text x="543.3333333333333" y="270" font-size="18">[          ]</text><rect x="40.0" y="300" width="246.66666666666666" height="70" fill="#fff" stroke="#64748b"/><text x="50.0" y="340" font-size="18">Remaining p</text><rect x="286.66666666666663" y="300" width="246.66666666666666" height="70" fill="#fff" stroke="#64748b"/><text x="296.66666666666663" y="340" font-size="18">[          ]</text><rect x="533.3333333333333" y="300" width="246.66666666666666" height="70" fill="#fff" stroke="#64748b"/><text x="543.3333333333333" y="340" font-size="18">[          ]</text><text x="40" y="400" font-size="18">Empty cells are learner work; no final model, count or label is supplied.</text><rect x="30" y="505" width="760" height="88" rx="10" fill="#eff6ff" stroke="#2563eb"/><text x="45" y="535" font-size="18">Keep local domains, bond components and available basis functions as separate</text><text x="45" y="559" font-size="18">inventories.</text></g></svg>